<?xml version="1.0" standalone="no"?>
<!DOCTYPE svg PUBLIC "-//W3C//DTD SVG 20010904//EN"
 "http://www.w3.org/TR/2001/REC-SVG-20010904/DTD/svg10.dtd">
<svg version="1.0" xmlns="http://www.w3.org/2000/svg"
 width="500.000000pt" height="500.000000pt" viewBox="0 0 500.000000 500.000000"
 preserveAspectRatio="xMidYMid meet">
<metadata>
Created by potrace 1.11, written by Peter Selinger 2001-2013
</metadata>
<g transform="translate(0.000000,500.000000) scale(0.100000,-0.100000)"
fill="#000000" stroke="none">
<path d="M4307 2658 c1 -843 3 -1545 3 -1560 l0 -28 285 0 285 0 0 330 c0 182
0 854 0 1495 0 641 0 1194 0 1230 l0 65 -287 0 -288 0 2 -1532z"/>
<path d="M132 3302 l-23 -4 4 -691 c2 -381 7 -708 11 -727 4 -19 9 -44 11 -55
41 -242 212 -504 413 -632 115 -74 272 -133 397 -150 70 -9 266 -9 310 1 164
37 358 138 487 254 l37 33 42 -58 c23 -32 67 -91 96 -130 l53 -73 68 0 68 0 0
1115 0 1115 -41 1 c-51 1 -495 1 -515 0 -13 -1 -15 -78 -14 -634 1 -476 -2
-647 -12 -692 -18 -88 -59 -167 -116 -231 -94 -102 -187 -148 -299 -147 -203
2 -349 113 -409 313 -20 68 -21 113 -23 824 l-2 569 -260 1 c-143 1 -270 0
-283 -2z"/>
<path d="M2563 3302 l-23 -3 0 -1115 0 -1114 285 0 285 0 1 645 c1 355 2 648
3 653 33 167 136 285 297 341 30 10 57 19 62 20 4 0 134 1 290 1 l282 0 -2
272 c-1 150 -2 278 -2 285 -1 15 -603 11 -676 -5 -27 -6 -59 -13 -70 -16 -106
-22 -250 -92 -355 -170 -41 -31 -77 -52 -81 -48 -3 4 -45 62 -93 130 -48 67
-93 122 -99 123 -58 3 -85 4 -104 1z"/>
</g>
</svg>
